<svg xmlns="http://www.w3.org/2000/svg" width="240" height="324" fill="none" id="man-with-coffee-mug"><path fill="#fff" fill-rule="evenodd" d="M114.339 135.723c5.216-3.973 18.308-5.759 23.875-1.934 5.497 3.841 6.096 10.053 8.658 15.768 2.417-1.14 6.409.493 7.11 2.736.869 1.059.908 4.032 1.507 5.454 26.08 4.153 30.039 24.493 33.178 47.585 4.153 23.432 13.58 46.813 9.487 70.925.533.772.954 1.522 1.343 2.413.931 1.586-.269 3.83-2.148 3.743-2.431-.213-4.839-.505-7.283-.596-6.773-.235-13.552-.207-20.328-.121l-.924.012c-34.148.425-68.294 1.263-102.443 1.485-1.239.002-1.845-1.109-1.68-2.206.333-2.207.642-4.416.965-6.625-8.077 2.135-16.664 2.672-24.718.225-.564-.574 1.313-.263 1.61-.35-7.412-5.067-5.199-15.742-4.542-23.431 4.083-26.345 5.522-55.494 21.297-77.974 6.825-9.175 16.83-16.438 28.327-18.073l.32-.043c3.361-.449 7.108-.593 10.047-2.423 3.306-2.64 4.714-7.518 8.192-7.564 1.148-.015 2.711 1.439 4.392 2.426.125-2.171 1.295-4.003 1.553-5.686l.021-.144c.269-1.962-.1-3.728 2.184-5.602Zm56.047 70.305c-7.329-5.094-26.261-2.534-26.694-2.249-.955.628-1.366.683-1.882 1.499-.509.067-1.019.137-1.527.21-1.021.333-.265 1.589.914 1.141-.709 3.059 1.378 5.235 2.209 8.259.269.982.009 2.748 0 3.751.08 1.28 1.494 2.791 1.258 4.074-.837 4.563-5.383 9.014-3.467 13.439 1.27 2.499 5.089 3.774 7.628 4.623 5.26 2.02 14.426-.076 17.482-4.623 1.631-2.425 3.519-8.543 4.491-10.441l.216-3.01c.531-7.484 1.004-15.539-.628-16.673Z" clip-rule="evenodd"></path><path fill="#000" fill-rule="evenodd" d="M104.912 144.288c.506-.448 1.255.115.933.721-.722 1.361-1.463 2.65-2.433 3.853-.588.73-1.218 1.42-1.856 2.102 1.638 1.417 3.043 3.177 4.369 4.827 1.696 2.109 3.3 4.308 5.204 6.238 1.878 1.904 3.955 3.235 6.465 4.122l.507.176c2.523.886 5.218 2.082 6.64 4.471.28.471-.284 1.053-.759.759-2.47-1.53-5.373-1.838-8.062-2.849-2.597-.976-4.862-2.479-6.862-4.398-1.998-1.915-3.675-4.094-5.424-6.227-1.73-2.109-3.592-3.911-5.638-5.695-3.158 2.125-6.762 3.05-10.427 3.958l-.4.099c-3.67.909-7.32 1.964-10.761 3.547-3.035 1.395-6.02 3.061-8.493 5.331-2.624 2.41-4.667 5.487-6.536 8.496-4.182 6.733-7.122 14.109-9.71 21.575a222.842 222.842 0 0 0-6.762 23.701 167.34 167.34 0 0 0-2.292 12.318 184.45 184.45 0 0 0-.793 5.987c-.247 2.136-.304 4.333-.96 6.386-.28.88-.943 1.246-1.607 1.214l-.134 1.687c-.179 2.248-.346 4.497-.402 6.759-.093 3.762-.051 7.513.22 11.266l.038.512c.212 2.74.687 5.818 2.747 7.824 2.132 2.077 5.412 2.731 8.286 2.768 6.694.087 13.138-3.077 19.062-5.853a206.038 206.038 0 0 0 17.828-9.474 270.353 270.353 0 0 0 8.748-5.428 234.062 234.062 0 0 0 4.21-2.79c.798-.542 1.554-1.135 2.367-1.616-.398-.371-.576-.953-.243-1.462-2.348-2.04-3.325-5.678-3.44-8.623-.092-2.376.258-4.746.534-7.1.139-1.188.31-2.373.49-3.554.07-.467.124-.967.206-1.46a193.689 193.689 0 0 1-19.55 9.348 155.175 155.175 0 0 1-10.425 3.85l-.714.235c-3.337 1.093-6.753 2.125-10.203 2.749-.184.034-.334-.239-.137-.325 3.362-1.484 6.84-2.736 10.252-4.103l.56-.228a1.236 1.236 0 0 1-.2-.029c-2.001-.483-3.987-1.228-5.95-1.855-1.821-.582-3.868-.947-5.57-1.825-.131-.068-.058-.25.07-.259 1.913-.133 3.99.425 5.867.754l.705.123c1.18.208 2.388.432 3.563.724.042-.393.262-.789.575-1.021 3.443-2.551 3.093-7.702 3.462-11.501l.273-2.821c.48-4.936.988-9.872 1.76-14.771.041-.261.446-.186.448.061.04 6.073-.419 12.118-.649 18.181l-.035.995c-.127 3.742-.227 7.627-2.582 10.506.329-.193.774-.193 1.041.125.328.39.517.828.511 1.258a338.167 338.167 0 0 0 6.357-2.743c6.78-3.005 13.418-6.368 19.88-10.006.696-.392 1.357-.084 1.701.432l.05-.007a.21.21 0 0 1 .025-.002l.05-.002h.005c.91-.5 2.149-.144 2.93.585.023.022.042.046.063.069a10.46 10.46 0 0 0 2.748-1.802c1.714-1.554 3.166-3.475 4.431-5.402 2.331-3.549 4.31-7.495 7.459-10.416 2.557-2.373 5.728-3.851 9.055-4.778a.332.332 0 0 1 .091-.27c.171-.175.293-.236.513-.129.018.008.028.02.036.033l.324-.555c.177-.301.359-.605.422-.684.378-.476.767-.948 1.162-1.41.669-.783 1.431-1.555 2.314-2.098 1.933-1.188 3.965-.516 5.953.134 1.201.392 2.397.797 3.596 1.196l.124.04c.894.287 1.94.539 2.339 1.486.158.375.183.764.109 1.141 8.49-2.159 17.919-1.167 26.204 1.368.318.098.635.359.702.703.949 4.87 1.372 9.864.942 14.816-.37 4.276-1.317 8.465-3.101 12.379l-.102.221c-1.677 3.627-4.335 8.099-8.394 9.236-2.451.686-5.161.282-7.661.156-2.429-.123-4.913-.14-7.319-.522-2.143-.341-4.021-1.302-5.345-3.045-1.143-1.504-1.744-3.322-2.237-5.13-.226.072-.45.149-.671.235-.931.364-1.72.951-2.433 1.642-1.506 1.459-2.674 3.231-4.25 4.623-1.427 1.261-3.052 2.241-4.796 2.995-3.613 1.562-7.489 2.186-11.31 3.013l-.267.058c-2.877.632-5.813 1.407-8.353 2.906-.05.441-.25.856-.572 1.128.447.421.637 1.087.244 1.712-1.1 1.746-2.994 2.739-4.694 3.855l-.11.073a205.46 205.46 0 0 1-15.627 9.429c-5.757 3.147-11.638 6.115-17.625 8.807.36 1.769.228 3.592.498 5.373l.041.254c.116.661-.04 1.213-.495 1.645l-.048.044v-.006l-.042.04-.014.012.004-.004a1.516 1.516 0 0 1-.161.131l-.07.045c-.439.266-1.003.263-1.452.028l-.05-.028-.087-.049c-.593-.342-1.002-1.187-.756-1.858.605-1.65.833-3.412 1.391-5.073l-.443.198-.583.255c-6.313 2.73-13.324 5.03-20.202 3.168-3.039-.822-5.879-2.563-7.4-5.399-1.496-2.791-1.707-6.032-1.786-9.137a73.592 73.592 0 0 1 .612-11.522c.339-2.55.75-5.148 1.382-7.672a1.904 1.904 0 0 1-.628-1.209c-.299-2.411.224-4.917.544-7.314.312-2.342.657-4.679 1.048-7.008a241.124 241.124 0 0 1 2.77-14.048c1.898-8.275 4.404-16.402 7.42-24.336l.265-.691c2.788-7.251 6.015-14.347 10.51-20.717 2.15-3.048 4.423-5.811 7.46-8.008 2.847-2.057 6.057-3.539 9.37-4.671 3.317-1.133 6.726-1.893 10.196-2.365 3.523-.48 7.242-.774 10.529-2.22-.416-.745-.06-1.752.64-2.215 2.355-1.556 4.533-3.581 6.643-5.452Zm75.382 67.679c.098-.15.333-.055.289.122-1.145 4.694-2.22 9.398-2.922 14.181-1.268 8.634-1.034 17.38-.931 26.078l.005.449c.054 4.685.128 9.37.282 14.053.079 2.367.233 4.757.149 7.125-.046 1.285-.388 2.5-.509 3.769-.106 1.11-.012 2.236.041 3.348.036.739-1.054.707-1.129 0l-.094-.915c-.124-1.158-.276-2.309-.655-3.417-.456-1.333-.675-2.642-.833-4.042-.243-2.145-.351-4.311-.444-6.47l-.064-1.494c-.391-9.026-.377-18.094.255-27.11l.047-.644c.626-8.522 1.712-17.731 6.513-25.033Zm-24.413-53.714c-.3-.123-.195-.575.137-.496l.602.143c4.414 1.058 8.749 2.204 12.869 4.172 4.123 1.97 7.613 4.91 10.387 8.525 5.391 7.028 7.632 15.569 9.401 24.101 1.965 9.482 3.755 18.998 5.738 28.476l.368 1.766c1.834 8.828 3.567 17.661 4.843 26.593l.092.648c1.287 9.186 2.061 18.689.656 27.899-.277 1.822-3.308 1.368-3.19-.432.343-5.204.588-10.381.351-15.596a165.304 165.304 0 0 0-1.455-15.582c-.614-4.352-1.529-8.65-2.338-12.967l-.127-.682c-.678-3.672-1.376-7.34-2.073-11.008l-1.042-5.493c-1.562-8.224-3.154-16.456-4.953-24.628l-.107-.481c-1.76-7.863-4.355-16.099-9.636-22.343-5.359-6.336-13.03-9.527-20.523-12.615Zm-19.472 83.399c.129-.288.579-.256.718 0 .543 1.002.603 2.281.706 3.413l.011.116c.13 1.381.246 2.767.317 4.152.134 2.629.198 5.254.19 7.887a160.347 160.347 0 0 1-.208 8.086l-.04.721c-.132 2.341-.355 4.952-1.467 6.999-.404.744-1.503.525-1.737-.227-.767-2.464-.373-5.385-.177-7.908l.153-1.969c.151-1.969.296-3.938.41-5.91.157-2.697.286-5.396.41-8.094.041-.877.085-1.753.131-2.63l.071-1.314c.06-1.1.055-2.306.512-3.322Zm-86.229 3.491.34-.328c1.042-1.02 2.359-2.592 3.9-2.494.614.039 1.005.549.878 1.154-.272 1.292-1.59 1.963-2.539 2.752-1.04.864-2.019 1.788-2.997 2.721a58.173 58.173 0 0 0-2.516 2.555l-.304.33c-.292.318-2.37 2.199-2.145 2.687l.012.022c.062.093-.042.221-.145.189-.898-.284-.842-1.053-.503-1.833.652-1.498 1.794-2.884 2.791-4.163a35.06 35.06 0 0 1 3.228-3.592Zm89.481-37.568c-.694-1.641-3.251-1.607-4.702-1.508-3.655.247-7.61 1.172-10.862 2.881-3.371 1.771-5.642 4.61-7.674 7.749l-.095.148c-1.981 3.08-3.889 6.726-6.99 8.843-1.58 1.079-3.424 2.065-5.341 2.491a.974.974 0 0 1-.624.481l-.13.03c-.546.121-1.394.254-2.127.174.005.359.002.715.011 1.054.025.974.036 1.951.036 2.925.001 2.04-.109 4.085-.024 6.125.076 1.805.331 3.691 1.197 5.304.635 1.184 1.474 1.967 2.486 2.715 2.49-1.518 5.305-2.444 8.163-3.14 3.456-.841 6.994-1.402 10.372-2.543 1.625-.55 3.188-1.268 4.604-2.245 1.503-1.036 2.65-2.439 3.831-3.811l.185-.213c1.205-1.383 2.52-2.706 4.224-3.456 1.466-.645 3.4-.76 4.682-1.76.671-.523.727-1.281.798-2.058-.822.117-1.691-.071-2.51-.167l-.424-.05c-.774-.092-1.531-.193-2.293-.39-.141-.037-.141-.25 0-.287.901-.232 1.794-.331 2.717-.44l.217-.027c.835-.109 1.713-.275 2.533-.091a6.928 6.928 0 0 1 .657-1.629c.418-.752 1.209-1.604 1.316-2.482a1.443 1.443 0 0 0-.152-.804l-.043-.079a.664.664 0 0 0-.203-.245c-.01.012-.032.025-.077.039-.631.199-1.181-.11-1.473-.586-1.24.154-2.592.102-3.755.154l-1.175.057c-1.256.057-2.569.082-3.749-.171-.165-.036-.214-.31-.049-.381 1.45-.62 3.21-.818 4.763-1.057.868-.133 1.742-.235 2.612-.352.579-.078 1.194-.207 1.794-.238 1.505-1.874.694-4.831-1.4-5.638-.763.336-1.449.141-2.283.069a27.852 27.852 0 0 0-2.501-.116c-1.674.007-3.448.448-5.105.258-.27-.031-.52-.39-.252-.609 1.269-1.036 3.087-1.373 4.698-1.594l.333-.045c.54-.071 1.197-.174 1.878-.235.154-.301.431-.528.846-.585.123-.017.247-.026.371-.037l-.002-.012c1.012-.049.968-1.76.691-2.416Zm-69.31 32.004a.913.913 0 0 1-.059.079l-.032.037.166-.067-.076-.049Zm86.977-35.671c-4.262-.458-8.529-.361-12.803-.238-.342 1.118-1.532 2.071-2.685 2.107.903 1.375.996 3.236.363 4.694 1.345.535 2.503 1.497 3.206 2.867.975 1.898.847 4.011-.116 5.765.822.745 1.307 1.955 1.259 3.095-.055 1.271-.812 2.357-1.441 3.41-.68 1.138-.703 2.14-.912 3.415-.306 1.866-1.564 2.997-3.182 3.704l.086.339c.417 1.625.936 3.339 2.129 4.527 1.534 1.529 3.914 1.515 5.941 1.611l.098.005c1.856.093 3.711.202 5.567.307l1.392.078c2.136.117 4.188.131 5.932-1.281 2.847-2.307 4.799-6.123 6.034-9.502 2.593-7.092 2.624-14.875 1.434-22.262-3.992-1.287-8.134-2.193-12.302-2.641Zm-35.438 11.767.031.002c.878.1 1.48.811 1.695 1.654.312 1.225.159 2.333.909 3.439.772 1.138 1.246 2.049 1.358 3.454.046.578.025 1.155.154 1.721l.093.396c.099.423.18.83.131 1.284-.045.414-.246.737-.662.87-1.352.433-2.397-.565-2.746-1.826-.302-1.089.101-2.387-.325-3.41-.236-.567-.671-1.041-.917-1.612a5.265 5.265 0 0 1-.405-1.772c-.074-1.163.954-2.561.38-3.615-.122-.225.017-.592.304-.585Zm-17.969-12.005c.916-.186 1.955-.613 2.858-.258.465.183.694.749.302 1.143-.681.683-1.671.721-2.589.882l-.08.014c-1.085.201-2.172.392-3.26.572-2.048.339-4.1.639-6.16.894-2.115.262-4.236.495-6.36.671l-.822.067c-1.794.144-3.661.252-5.422-.023-.256-.04-.214-.413 0-.478 1.929-.584 4.044-.74 6.038-.988 2.12-.263 4.237-.541 6.347-.87a220.43 220.43 0 0 0 6.309-1.074c.948-.176 1.894-.36 2.839-.552Zm33.054-1.875c-.804-.285-1.689-.706-2.56-.565-1.502.243-2.839 1.707-4.028 2.671l.597-.116c3.055-.587 7.1-1.22 9.665.723.006-.011.011-.022.019-.033.207-.315.447-.56.708-.829.025-.024.05-.048.073-.073l.142-.15-.323-.112c-.692-.245-1.512-.561-1.641-.607l-.009-.003c-.883-.299-1.766-.595-2.643-.906Zm-25.099-64.055c-.126-1.617 2.39-1.604 2.515 0 .272 3.502-.516 6.971-2.212 10.042-.012.022-.026.042-.039.063a49.369 49.369 0 0 0 3.23 1.555 47.404 47.404 0 0 0 4.286 1.625c1.316.424 2.937.591 4.043 1.472 2.333 1.859 1.456 5.715 1.008 8.215l-.07.394c-.224 1.286-.385 2.606.157 3.841.579 1.318 1.749 2.296 2.793 3.24l.211.191c.926.843 1.983 1.868 2.661 3.011.62-1.281 1.464-2.328 2.357-3.507.637-.841.183-1.119-.274-1.94-.441-.791-.656-1.634-.518-2.537.254-1.666 1.585-2.869 2.91-3.774 1.565-1.067 3.312-1.858 4.93-2.851 3.324-2.041 6.561-4.374 9.477-6.965.081-.071.22.023.156.12-2.304 3.506-5.005 6.535-8.325 9.107-1.347 1.042-2.761 1.907-4.185 2.816l-.409.263c-.572.37-1.285.866-1.543 1.496-.26.634.295 1.113.593 1.639.948 1.668.491 3.225-.633 4.64l-.052.065c-1.117 1.377-1.964 2.657-2.368 4.416-.87 3.779.341 7.714 1.609 11.261l.051.14c.686 1.912 1.415 3.81 2.011 5.752l.164.537c.54 1.788.982 3.55.376 5.388-.206.625-1.058.773-1.412.184-1.248-2.074-1.559-4.57-2.342-6.85-.763-2.223-1.638-4.405-2.375-6.637-.949-2.873-1.584-5.966-1.239-8.98-.01-.018-.021-.034-.03-.053l-.241-.528c-.659-1.431-1.295-2.68-2.492-3.821-1.249-1.19-2.605-2.243-3.588-3.683-2.134-3.128-.814-6.608-.556-10.028l.029-.42c.047-.71.073-1.675-.391-2.167-.522-.553-1.745-.694-2.437-.939-1.789-.633-3.551-1.371-5.23-2.257-1.598-.843-3.146-1.775-4.587-2.866l-.731-.55c-1.152-.87-2.347-1.82-3.12-3.005-.089-.136.062-.356.224-.291 1.289.524 2.468 1.357 3.674 2.081.019-.044.041-.089.065-.133 1.493-2.703 2.107-5.698 1.869-8.772Zm41.193 18.518c.514-1.41 2.856-1.301 2.762.374-.071 1.287-.617 2.448-1.116 3.616l-.054.125a23.24 23.24 0 0 1-1.823 3.476c-1.361 2.132-2.956 4.111-4.659 5.979-1.544 1.693-3.57 2.729-5.905 2.557-.984-.073-1.977-.323-2.839-.815-1.024-.584-2.137-2.338-3.443-1.913-.126.041-.244-.144-.135-.232 1.508-1.215 3.22.669 4.664 1.123 2.176.684 4.409-.072 5.809-1.832 1.462-1.837 2.808-3.894 4.037-5.895a28.416 28.416 0 0 0 1.685-3.156c.497-1.097.61-2.289 1.017-3.407Zm-3.507-8.674c-.063-.195.178-.38.349-.269.991.645 1.85 1.498 2.764 2.246a138.81 138.81 0 0 0 3.074 2.442c1.512 1.166-.242 3.313-1.573 2.039-1.822-1.743-3.818-4.022-4.614-6.458Zm-5.441-6.823c.402-1.553 2.784-.912 2.437.623l-.012.046c-.657 2.536.279 5.117 2.278 6.761l.073.06c1.264 1.012-.527 2.781-1.779 1.779-2.732-2.188-3.869-5.905-2.997-9.269Z" clip-rule="evenodd"></path><path fill="#fff" fill-rule="evenodd" d="M164.804 91.317c-.784-6.26-3.247-12.907-5.838-18.744-5.826-12.34-19.162-14.039-31.118-16.583-11.798-1.718-24.292-3.27-35.912.159-6.532 1.6-9.084 9.384-8.053 15.526.589 3.827 2.33 7.45 3.815 10.997 2.952 7.284 4.824 15.083 4.828 22.969-.203 5.154-.93 11.037 4.99 13.22 5.634 2.803 6.11 10.401 13.165 14.711 2.852 5.78 10.622 6.289 16.215 7.63 3.535.677 7.109 1.175 10.694 1.497 10.378 1.33 18.681-1.679 24.114-10.928 3.636-5.629 6.343-12.128 5.674-18.95-.666-7.184-1.776-14.33-2.574-21.504Z" clip-rule="evenodd"></path><path fill="#000" fill-rule="evenodd" d="M127.937 40.993c.593-.672 1.506-.441 2.06.09.36.106.71.264 1.04.474.745-.096 1.527-.096 2.259-.07.177-.099.367-.188.574-.264 1.479-.54 2.789-.266 3.869.458.52-.492 1.177-.801 2.016-.754.749.041 1.283.394 1.74.858a2.773 2.773 0 0 1 2.112-1.192c1.284-.092 2.518.423 3.541 1.22.596-.683 1.409-1.076 2.314-1.08a3.88 3.88 0 0 1 1.793.106c.824.25 1.549.716 2.125 1.322.913-.874 2.03-1.503 3.318-1.411 1.667.12 3.048 1.346 3.691 2.855 1.128.452 2.169 1.097 3.04 2.017.046.048.091.099.137.15.469.173.911.418 1.299.741 1.232 1.026 1.507 2.51 1.099 3.963.057.233.106.47.15.706 1.153.175 2.201.841 2.797 1.926.816 1.488.655 3.449-.228 4.87a6.575 6.575 0 0 1-1.403 1.575c.612 1.39.319 3.05-.668 4.175a5.415 5.415 0 0 1-.868 1.055c.367 1.438-.285 2.921-1.587 3.69l-.111.278-.057.138c-.015.06-.033.117-.05.174a2.836 2.836 0 0 1-.532 1.483c-.683.967-1.529 1.597-1.978 2.726l-.044.118c-.193.534-.816.911-1.347.746 2.947 6.054 4.491 12.79 5.552 19.39.529 3.293.937 6.598 1.268 9.915l.325 3.303c.285 2.936.539 5.882.541 8.828.004 6.664-1.902 13.074-5.992 18.377-3.868 5.013-9.342 8.646-15.526 10.077-6.384 1.475-13.874.894-19.599-2.483-1.688-.993-.209-3.382 1.508-2.583 3.252 1.514 6.556 2.638 10.16 2.889a26.12 26.12 0 0 0 10.367-1.342c5.512-1.904 10.202-5.892 13.217-10.859 1.485-2.447 2.561-5.104 3.133-7.911.713-3.498.605-7.114.344-10.658l-.019-.241c-.517-6.827-1.2-13.696-2.302-20.454-.975-5.977-2.474-11.833-4.42-17.56a10.49 10.49 0 0 0-2.527-1.648 181.123 181.123 0 0 0-20.049.264 166.861 166.861 0 0 0-16.976 2.042l-.602.106c-1.244.221-2.626.348-3.798.85-1.006.43-1.414 1.259-1.667 2.277-.638 2.577-.735 5.396-.843 8.038-.106 2.583.133 5.187-.074 7.76-.175 2.154-.727 4.359-2.322 5.917-.834.815-1.861 1.261-2.824 1.88-.624.4-.888.812-.807 1.552.173 1.619 1.476 3.658.012 5.045-.258.243-.703.274-.957 0-.604-.657-1.439-1.159-2.155-1.689a.287.287 0 0 1 .29-.495c.448.201.904.438 1.371.645-1.031-.849-2.497-1.266-3.719-1.513a6.666 6.666 0 0 0-1.9-.101 35.45 35.45 0 0 1-3.302 1.354c-2.17 1.769-3.206 4.646-2.754 7.459.247 1.553.963 3.242 2.313 4.149 1.6 1.073 3.742.612 5.47 1.409 1.619.746 2.603 2.253 3.34 3.813l.308.649c.684 1.438 1.388 2.838 2.323 4.146 1.081 1.516 2.406 2.877 3.851 4.046a19.51 19.51 0 0 0 2.221 1.538l.211.125c.781.459 1.341.896 1.394 1.866.017.338-.196.647-.471.822-1.183.751-2.36-.188-3.344-.843a24.253 24.253 0 0 1-3.019-2.367 23.323 23.323 0 0 1-4.524-5.717c-.906-1.615-1.421-3.887-2.854-5.138-.874-.763-2.11-.769-3.203-.909-1.016-.131-1.977-.342-2.881-.843-3.678-2.044-4.718-6.991-3.845-10.815.148-.644.355-1.272.61-1.877-1.369.229-2.907-1.187-2.351-2.616.042-.108.09-.209.137-.313a4.71 4.71 0 0 1-1.952-2.671 4.258 4.258 0 0 1-.108-1.818 2.935 2.935 0 0 1-1.03-1.194c-.727-.336-1.372-.839-1.756-1.558-.533-.991-.465-1.904-.06-2.726a7.33 7.33 0 0 1-.164-.317c-1.49-.945-2.53-2.572-2.41-4.377a4.447 4.447 0 0 1 .413-1.623 5.956 5.956 0 0 1-.055-.186c-1.246-.635-2.277-1.676-2.645-3.067-.367-1.4.066-2.794.932-3.868-1.268-.928-2.03-2.223-1.568-4.183a5.182 5.182 0 0 1 1.078-2.132.536.536 0 0 0-.01-.057l-.12-.092c-1.564-1.235-2.464-2.81-1.503-4.746.43-.87 1.045-1.477 1.768-1.877l.036-.114c-.518-1.11-.693-2.342-.336-3.637.291-1.067.982-1.917 1.865-2.481-.059-.478-.05-.987.045-1.54a3.89 3.89 0 0 1 1.297-2.322c.025-.122.057-.243.093-.363a6.529 6.529 0 0 1 1.15-2.133c.407-.492.863-.672 1.421-.691a5.107 5.107 0 0 1 .082-1.382c.286-1.441 1.203-2.796 2.561-3.411a3.279 3.279 0 0 1 1.711-.265c.482-1.014 1.422-1.75 2.578-1.908.45-.063.868-.06 1.253-.002.217-.102.443-.192.68-.275.156-.055.315-.106.473-.156a4.945 4.945 0 0 1 2.06-1.513 3.886 3.886 0 0 1 2.77-.022l.272-.057c.427-.74 1.107-1.312 2.153-1.572 1.187-.294 2.406.116 3.34.862.004 0 .009 0 .015-.002.488-1.093 1.322-1.854 2.723-1.8.873.033 1.661.467 2.269 1.084.338-.043.676-.08 1.016-.119.36-.42.759-.813 1.2-1.166.723-.58 1.663-.533 2.195.283.117.177.224.357.332.537l.488-.034c.575-.776 1.359-1.3 2.432-1.342.984-.04 1.686.441 2.22 1.116.435-.011.873-.02 1.31-.026a7.979 7.979 0 0 1 1.794-1.54c.524-.33 1.297-.218 1.722.222.287.298.554.61.802.933a4.383 4.383 0 0 1 2.427-1.37Zm-31.093 67.114c.986-.562 2.313.047 3.268.524 1.164.582 2.32 1.459 3.032 2.558.969 1.496-1.31 2.705-2.331 1.363-.627-.826-1.128-1.659-1.888-2.382-.695-.664-1.703-1.107-2.103-1.982-.014-.03-.01-.064.022-.081Zm.693-36.32.019-.053c.28-.768-.944-1.1-1.222-.338-.422 1.155.064 2.41 1.203 2.908.316.138.677.09.868-.228.16-.267.085-.73-.228-.867-.64-.28-.856-.776-.64-1.422Zm-10.55-2.148c.613-.54-.286-1.435-.896-.896-.57.503-.992 1.185-.882 1.97.112.8.715 1.366 1.375 1.765.7.423 1.338-.673.64-1.095l-.079-.048c-.292-.182-.635-.432-.685-.79-.052-.38.27-.678.527-.906Zm3.48-9.547.044-.032c.658-.47.026-1.57-.64-1.095-.61.436-1.1 1.003-1.152 1.784-.05.76.336 1.417.841 1.951.562.595 1.457-.303.897-.896-.547-.578-.654-1.208.01-1.712Z" clip-rule="evenodd"></path><path fill="#000" fill-rule="evenodd" d="M147.453 124.138c.324-.564 1.071-1.086 1.753-1.006 3.059.359 3.054 4.069 1.873 6.235-1.047 1.92-3.215 3.048-5.384 2.883-2.279-.173-4.221-1.514-5.075-3.646-.566-1.411-.827-4.016.677-4.963.028-.018.074-.014.096.012.721.839.749 2.098 1.38 3.032.587.869 1.499 1.586 2.567 1.697.798.083 1.605-.205 1.917-.922.169-.387.149-.598.086-.864l-.058-.232c-.2-.812-.289-1.43.168-2.226Zm.818-16.271c1.595.97 4.026 3.232 2.31 5.637-2.02 2.121-4.929-.311-6.362-1.41-1.329-.853-2.822 1.339-1.589 2.334 10.357 7.671 14.56-6.307 6.448-7.702-.893-.153-1.225.841-.807 1.141Zm-16.847-6.652c.979-1.47 3.214-1.254 3.754.49.292.945-.112 1.794-.091 2.738.018.797-.035 1.685-.279 2.457-.557 1.76-2.139 3.003-4.011 2.952-1.866-.052-3.509-1.233-4.291-2.897-.784-1.671-.618-3.399-.046-5.098.028-.081.135-.121.199-.052.677.719 1.172 1.479 1.685 2.285l.525.825c.402.622.985 1.417 1.735 1.367l.112-.011c.209-.018.177.023.338-.261.074-.131.06-.376.096-.531l.013-.052-.007-.029a3.292 3.292 0 0 1-.044-.462l-.003-.054c-.054-1.149-.379-2.626.315-3.667Zm24.822.978c-.176-1.88 2.466-2.297 3.344-.906.458.725.592 1.636.693 2.5l.047.409c.104.887.146 1.809-.239 2.636-.606 1.303-1.924 1.991-3.345 1.882a4.069 4.069 0 0 1-3.249-2.086c-.582-1.067-1.161-3.149-.454-4.262.043-.067.128-.076.187-.024.668.594.777 1.676 1.174 2.449.41.797 1.031 1.574 1.973 1.695.9.116 1.245-.377 1.015-1.236-.297-1.109-1.034-1.863-1.146-3.057Zm-24.108-12.154.432-.165c1.48-.56 3.512-1.206 4.715-.002.743.742.884 1.836.354 2.742-.642 1.098-1.794 1.125-2.906 1.286a15.341 15.341 0 0 0-3.728 1.032c-1.327.562-2.558 1.262-3.764 2.043-1.147.743-2.289 1.958-3.661 2.187-.056.009-.12-.015-.134-.077-.312-1.342.554-2.663 1.327-3.71.935-1.267 2.068-2.308 3.334-3.24 1.223-.901 2.619-1.552 4.031-2.096Zm26.887 4.772.132-.023c.898-.15 1.711-.115 2.387.596.517.542.716 1.245.47 1.963-.227.662-.735 1.334-1.472 1.473-2.489.468-5.245.39-7.746.036-1.145-.162-2.299-.361-3.414-.674l-.512-.149c-.931-.266-1.996-.544-2.672-1.228-.243-.246-.103-.598.188-.712 1.179-.462 2.795-.217 4.053-.253a58.794 58.794 0 0 0 4.384-.302c1.422-.148 2.799-.47 4.202-.727Z" clip-rule="evenodd"></path><path fill="#000" fill-rule="evenodd" d="M129.449 129.599c1.71-4.009 5.444-6.955 9.742-8.033 3.156-.788 6.469-.763 9.686-.45 1.686.163 3.494.296 5.083.923 1.357.535 2.462 1.546 3.294 2.733.989 1.407 1.662 3.017 2.135 4.667.067.235.13.471.189.709-.206 1.245-.642 2.305-1.795 3.088-1.125.764-2.467 1.077-3.805 1.188a6.217 6.217 0 0 1-.375-.194c-2.085-1.195-3.552-4.017-6.184-3.635-2.349.341-3.895 3.298-5.292 5.031-4.483.523-8.963-.825-12.611-3.39a7.426 7.426 0 0 1-.067-2.637m33.176-3.041a17.37 17.37 0 0 0-1.346-2.901 16.498 16.498 0 0 0-7.714-6.843c-7.631-3.268-17.505-.964-23.668 4.397-2.105 1.833-4.234 4.526-4.878 7.423a1.075 1.075 0 0 0-.523.279c-4.453-2.805-9.038-5.503-12.626-9.39-2.606-2.825-4.418-6.168-5.528-9.841-.091-.302-.578-.258-.563.077l.012.234c-.046-.144-.265-.07-.282.07-.597 4.462-1.344 9.193-.656 13.679.411 2.676 1.626 4.635 3.251 6.751 1.741 2.268 3.711 4.377 5.726 6.4 1.279 1.284 2.614 2.765 4.18 3.707 1.821 1.094 3.886 1.925 5.829 2.769a75.6 75.6 0 0 0 6.028 2.347c4.087 1.384 8.311 2.34 12.609 2.759 3.441.334 7.374.698 10.672-.597 2.527-.992 4.567-2.786 6.186-4.944 1.761-2.351 3.154-5.029 3.924-7.852.8-2.933-.465-8.052-.633-8.524" clip-rule="evenodd"></path></svg>